<?xml version="1.0" standalone="no"?>
<!DOCTYPE svg PUBLIC "-//W3C//DTD SVG 20010904//EN"
 "http://www.w3.org/TR/2001/REC-SVG-20010904/DTD/svg10.dtd">
<svg version="1.0" xmlns="http://www.w3.org/2000/svg"
 width="700.000000pt" height="700.000000pt" viewBox="0 0 700.000000 700.000000"
 preserveAspectRatio="xMidYMid meet">
<metadata>
Created by potrace 1.14, written by Peter Selinger 2001-2017
</metadata>
<g transform="translate(0.000000,700.000000) scale(0.100000,-0.100000)"
fill="#000000" stroke="none">
<path d="M1637 6944 c-1 -1 -69 -4 -152 -7 -82 -3 -160 -8 -171 -11 -12 -2
-39 -7 -60 -10 -138 -22 -323 -89 -459 -167 -401 -230 -659 -613 -732 -1085
-3 -21 -7 -984 -8 -2139 -2 -1627 0 -2121 10 -2195 65 -499 366 -919 816
-1137 115 -56 260 -104 364 -119 17 -3 36 -7 43 -9 7 -3 47 -8 90 -12 73 -6
4035 -9 4191 -3 87 4 225 28 335 59 224 64 444 196 616 370 215 217 350 479
407 791 16 88 18 241 18 2205 0 1161 -4 2139 -8 2174 -7 54 -21 127 -42 215
-21 87 -90 251 -145 346 -211 362 -566 616 -977 701 -76 16 -150 22 -328 25
-197 4 -3804 11 -3808 8z"/>
</g>
</svg>
